# xmcd
#
# Track frame offsets:
#	150
#	26775
#	61473
#	88589
#	111403
#	133570
#	161127
#	186335
#	217274
#	243009
#
# Disc length: 3770 seconds
#
# Revision: 0
# Processed by: cddbd v1.5.2PL0 Copyright (c) Steve Scherf et al.
# Submitted via: EasyCDDAExtractor 5.0.5.1
#
DISCID=930eb80a
DTITLE=Bob Dylan - Modern Times
DYEAR=2006
DGENRE=Blues
TTITLE0=Thunder On the Mountain
TTITLE1=Spirit On the Water
TTITLE2=Rollin' and Tumblin'
TTITLE3=When the Deal Goes Down
TTITLE4=Someday Baby
TTITLE5=Workingman's Blues #2
TTITLE6=Beyond the Horizon
TTITLE7=Nettie Moore
TTITLE8=The Levee's Gonna Break
TTITLE9=Ain't Talkin'
EXTD=
EXTT0=
EXTT1=
EXTT2=
EXTT3=
EXTT4=
EXTT5=
EXTT6=
EXTT7=
EXTT8=
EXTT9=
PLAYORDER=
